<?xml version="1.0" encoding="UTF-8"?>
<svg id="Layer_1" xmlns="http://www.w3.org/2000/svg" version="1.1" viewBox="0 0 960 421.58">
  <!-- Generator: Adobe Illustrator 29.8.1, SVG Export Plug-In . SVG Version: 2.1.1 Build 2)  -->
  <defs>
    <style>
      .st0 {
        fill: #fff;
      }

      .st1 {
        fill: none;
      }

      .st2 {
        fill: #3f3d56;
      }

      .st3 {
        isolation: isolate;
        opacity: .2;
      }

      .st4 {
        fill: #ccc;
      }

      .st5 {
        fill: #0e4da4;
      }

      .st6 {
        fill: #e6e6e6;
      }
    </style>
  </defs>
  <path class="st2" d="M838.35,333.78h-276.84l53.65-77.92,3.86-5.61,69.91-101.55c4.58-6.65,15.61-7.07,21-1.26.36.4.7.82,1.01,1.26l127.42,185.09Z"/>
  <path class="st2" d="M321.27,332.33H1.2c-.4,0-.8-.03-1.2-.1l59.2-102.54,92.18-159.67c2.88-5.1,9.35-6.89,14.45-4.01,1.67.95,3.06,2.33,4.01,4.01l101.6,175.97,4.87,8.42,44.98,77.93Z"/>
  <path class="st3" d="M781.78,333.78h-109.28l53.64-77.92,3.86-5.61,1.94-2.81,4.87,8.42,44.97,77.93Z"/>
  <path class="st2" d="M960,333.78h-276.84l53.65-77.92,3.86-5.61,69.91-101.55c4.58-6.65,15.61-7.07,21-1.26.36.4.7.82,1.01,1.26l127.42,185.09Z"/>
  <circle class="st5" cx="516.98" cy="273.11" r="19.66"/>
  <path class="st2" d="M518.87,332.34h-4.03l1.84-62.18,2.2,62.18Z"/>
  <path class="st2" d="M517.03,281.94l4.32-5.98-4.38,7.46-.47-.83.53-.65Z"/>
  <path class="st2" d="M516.56,287.98l-4.32-5.98,4.38,7.46.47-.83-.53-.65Z"/>
  <circle class="st5" cx="557.27" cy="244.87" r="29.04"/>
  <path class="st2" d="M560.07,332.34h-5.95l2.71-91.83,3.24,91.83Z"/>
  <path class="st2" d="M557.36,255.47l6.38-8.83-6.47,11.02-.7-1.23.79-.96Z"/>
  <path class="st2" d="M556.66,266.82l-6.38-8.83,6.47,11.02.7-1.22-.79-.96Z"/>
  <circle class="st5" cx="474.14" cy="244.87" r="29.04"/>
  <path class="st2" d="M476.94,332.34h-5.95l2.71-91.83,3.23,91.83Z"/>
  <path class="st2" d="M474.23,257.9l6.39-8.83-6.47,11.02-.7-1.23.79-.97Z"/>
  <path class="st2" d="M473.53,266.82l-6.39-8.83,6.47,11.02.7-1.22-.79-.96Z"/>
  <path class="st6" d="M454.13,121.72c4.56,0,9.04,1.15,13.02,3.36h-26.01c3.97-2.21,8.44-3.37,12.99-3.36Z"/>
  <path class="st6" d="M455.69,82.07c7.61,0,15.04,2.34,21.26,6.73h-42.48c6.21-4.38,13.62-6.73,21.22-6.73Z"/>
  <path class="st6" d="M137.95,65.08C140.1,27.05,172.67-2.04,210.7.11c29.5,1.67,54.67,21.95,62.56,50.42.84-.03,1.67-.06,2.51-.06,30.6,0,57.53,20.16,66.16,49.51,20.31-8.92,44.08-3,57.84,14.41h-215.12c-25.76.08-46.71-20.75-46.78-46.51,0-.6,0-1.19.03-1.79.02-.34.03-.68.05-1.02Z"/>
  <path class="st1" d="M582.97,172.08c2.22-2.8,4.84-5.27,7.77-7.33h-16.22c3.3,1.83,6.18,4.33,8.46,7.33h0Z"/>
  <path class="st1" d="M636.01,164.75h-2.8c.6.42,1.2.84,1.78,1.3.33-.44.68-.87,1.02-1.3Z"/>
  <path class="st6" d="M561.53,161.38c-4.56,0-9.04,1.15-13.02,3.36h26.01c-3.97-2.21-8.44-3.37-12.98-3.36Z"/>
  <path class="st6" d="M611.99,147.31c-7.85.08-15.4,3-21.26,8.22h42.48c-5.85-5.22-13.39-8.14-21.22-8.22Z"/>
  <path class="st6" d="M895.04,129.6c-2.15-38.03-34.72-67.11-72.75-64.96-29.5,1.67-54.66,21.95-62.56,50.42-.84-.03-1.67-.06-2.51-.06-30.6,0-57.53,20.16-66.16,49.51-20.31-8.92-44.09-3-57.84,14.41h215.13c25.76.07,46.71-20.75,46.78-46.52,0-.59,0-1.19-.03-1.78-.01-.34-.03-.68-.05-1.02Z"/>
  <g>
    <path class="st5" d="M425.85,331.98h-123.24c-3.37,0-6.1-2.48-6.1-5.53v-74.6c.03-1.27.84-2.4,2.03-2.83l57.38-22.96c5.27-2.09,11.14-2.09,16.42,0l57.58,22.96c1.2.44,2.01,1.56,2.04,2.83v74.6c0,3.05-2.74,5.53-6.11,5.53Z"/>
    <path class="st0" d="M335.46,280.71v-7.72c0-2.1-1.7-3.79-3.79-3.79h-19.47c-2.1,0-3.79,1.7-3.79,3.79h0v7.72h27.06Z"/>
    <path class="st0" d="M308.4,281.92v11.96c0,2.1,1.7,3.79,3.79,3.79h19.47c2.1,0,3.79-1.7,3.79-3.79h0v-11.96h-27.06Z"/>
    <path class="st2" d="M427.27,259.53l-58.45-21.43c-3.55-1.3-7.45-1.3-11.01,0l-58.45,21.43c-4.23,1.55-8.91-.62-10.46-4.85-.33-.9-.5-1.85-.5-2.81h0c0-3.42,2.14-6.48,5.35-7.65l64.07-23.48c3.55-1.3,7.45-1.3,11.01,0l64.07,23.48c3.21,1.18,5.35,4.23,5.35,7.65h0c0,4.5-3.65,8.15-8.15,8.15-.96,0-1.91-.17-2.81-.5h0Z"/>
    <path class="st2" d="M372.75,332.34h-15.62c-3.45,0-6.25-2.8-6.25-6.25v-37.83c0-3.45,2.8-6.25,6.25-6.25h15.62c3.45,0,6.25,2.8,6.25,6.25v37.84c0,3.45-2.8,6.25-6.26,6.25ZM357.13,283.07c-2.86,0-5.18,2.32-5.18,5.18v37.84c0,2.86,2.32,5.18,5.18,5.18h15.62c2.86,0,5.18-2.32,5.18-5.18v-37.84c0-2.86-2.32-5.18-5.18-5.18h-15.62Z"/>
    <path class="st4" d="M308.6,293.81c-1.68-.06-3.1,1.25-3.16,2.94-.06,1.68,1.25,3.1,2.94,3.16.07,0,.15,0,.22,0h26.65c1.68.06,3.1-1.25,3.16-2.94.06-1.68-1.25-3.1-2.94-3.16-.07,0-.15,0-.22,0h-26.65Z"/>
    <path class="st0" d="M391.39,281.92v11.96c0,2.1,1.7,3.79,3.79,3.79h19.47c2.1,0,3.79-1.7,3.79-3.79h0v-11.96h-27.06Z"/>
    <path class="st0" d="M418.45,280.71v-7.72c0-2.1-1.7-3.79-3.79-3.79h-19.47c-2.1,0-3.79,1.7-3.79,3.79h0v7.72h27.06Z"/>
    <circle class="st2" cx="374.23" cy="306.15" r="2.22"/>
    <path class="st4" d="M418.05,300.28h-26.65c-1.88,0-3.41-1.53-3.41-3.41s1.53-3.41,3.41-3.41h26.65c1.88,0,3.41,1.53,3.41,3.41s-1.53,3.41-3.41,3.41Z"/>
  </g>
</svg>